<svg width="125" height="100" viewBox="0 0 125 100" fill="none" xmlns="http://www.w3.org/2000/svg">
<g clip-path="url(#clip0_159_1213)">
<path d="M85.0002 61.6667C96.9663 61.6667 106.667 51.9662 106.667 40C106.667 28.0339 96.9663 18.3334 85.0002 18.3334C73.034 18.3334 63.3335 28.0339 63.3335 40C63.3335 51.9662 73.034 61.6667 85.0002 61.6667Z" stroke="#FFC635" stroke-width="6" stroke-linecap="round" stroke-linejoin="round"/>
<path d="M108.367 16.6333L109.64 15.3599M60.3599 64.6399L61.6332 63.3666M84.9998 6.93329L84.9999 5.43994M84.9998 74.5599V73.0666M51.9332 40H50.4399M119.56 40H118.067M61.6332 16.6333L60.0399 15.0399M109.32 64.6399L108.367 63.3666" stroke="#FFC635" stroke-width="8" stroke-linecap="round" stroke-linejoin="round"/>
<path d="M1.97407e-07 75.633C-0.00152701 63.7026 8.85842 53.5256 20.9342 51.5869C27.6197 39.9768 40.8952 33.5181 54.4318 35.2901C67.9683 37.062 79.0257 46.7058 82.3327 59.6239C93.098 61.2364 100.772 70.6615 99.9381 81.248C99.1047 91.8345 90.0457 100.008 79.154 100H24.996C11.1911 100 1.97407e-07 89.0905 1.97407e-07 75.633Z" fill="white"/>
</g>
<defs>
<clipPath id="clip0_159_1213">
<rect width="125" height="100" fill="white"/>
</clipPath>
</defs>
</svg>
