<svg width="125" height="105" viewBox="0 0 125 105" fill="none" xmlns="http://www.w3.org/2000/svg">
<g clip-path="url(#clip0_159_1214)">
<path d="M49.101 41.5198C50.4391 60.0551 66.6832 75.1352 86.124 75.963C99.8404 76.5388 112.107 70.3484 119.467 60.5949C122.515 56.6 120.88 53.9366 115.787 54.8364C113.297 55.2683 110.732 55.4483 108.055 55.3403C89.8783 54.6205 75.0096 39.9002 74.9353 22.5167C74.8981 17.8379 75.9018 13.411 77.7232 9.38006C79.7305 4.9172 77.3143 2.79375 72.6678 4.70126C57.9478 10.7117 47.8743 25.072 49.101 41.5198Z" stroke="#000412" stroke-width="6" stroke-linecap="round" stroke-linejoin="round"/>
<path d="M1.97407e-07 80.633C-0.00152701 68.7026 8.85842 58.5256 20.9342 56.5869C27.6197 44.9768 40.8952 38.5181 54.4318 40.2901C67.9683 42.062 79.0257 51.7058 82.3327 64.6239C93.098 66.2364 100.772 75.6615 99.9381 86.248C99.1047 96.8345 90.0457 105.008 79.154 105H24.996C11.1911 105 1.97407e-07 94.0905 1.97407e-07 80.633Z" fill="white"/>
</g>
<defs>
<clipPath id="clip0_159_1214">
<rect width="125" height="105" fill="white"/>
</clipPath>
</defs>
</svg>
