<svg width="125" height="105" viewBox="0 0 125 105" fill="none" xmlns="http://www.w3.org/2000/svg">
<g clip-path="url(#clip0_159_1104)">
<path d="M1.98912e-07 59.5946C-0.00153866 47.0895 8.92595 36.4224 21.0938 34.3903C27.8303 22.221 41.207 15.4513 54.8467 17.3086C68.4865 19.1658 79.6282 29.2741 82.9604 42.8144C93.8078 44.5046 101.54 54.3836 100.7 65.48C99.8602 76.5763 90.7322 85.1432 79.7575 85.1351H25.1866C11.2764 85.1351 1.98912e-07 73.7002 1.98912e-07 59.5946Z" fill="white"/>
</g>
<g clip-path="url(#clip1_159_1104)">
<path d="M44.7764 71.1036C44.7751 61.1459 51.8841 52.6517 61.5732 51.0336C66.9375 41.3432 77.5893 35.9525 88.4506 37.4314C99.3119 38.9104 108.184 46.9595 110.837 57.7417C119.475 59.0875 125.632 66.9542 124.963 75.7901C124.295 84.6261 117.026 91.4479 108.287 91.4415H64.8323C53.7557 91.4415 44.7764 82.3359 44.7764 71.1036Z" fill="#828282"/>
</g>
<path d="M14.9253 75.825C14.9253 75.825 23.4763 71.0953 36.3805 71.0953" stroke="#4F4F4F" stroke-width="3" stroke-linecap="round"/>
<path d="M14.9253 82.4466C14.9253 82.4466 23.4763 77.7169 36.3805 77.7169C49.2847 77.7169 57.9912 82.9196 70.8954 82.9196C83.7997 82.9196 92.3507 77.717 92.3507 77.717" stroke="#4F4F4F" stroke-width="3" stroke-linecap="round"/>
<path d="M14.9253 89.0683C14.9253 89.0683 23.4763 84.3386 36.3805 84.3386C49.2847 84.3386 57.9912 89.5413 70.8954 89.5413C83.7997 89.5413 92.3507 84.3387 92.3507 84.3387" stroke="#4F4F4F" stroke-width="3" stroke-linecap="round"/>
<path d="M14.9253 95.6899C14.9253 95.6899 23.4763 90.9602 36.3805 90.9602C49.2847 90.9602 57.9912 96.1629 70.8954 96.1629" stroke="#4F4F4F" stroke-width="3" stroke-linecap="round"/>
<defs>
<clipPath id="clip0_159_1104">
<rect width="100.746" height="102.162" fill="white"/>
</clipPath>
<clipPath id="clip1_159_1104">
<rect width="80.2239" height="81.3514" fill="white" transform="translate(44.7764 23.6487)"/>
</clipPath>
</defs>
</svg>
