<svg width="100" height="100" viewBox="0 0 100 100" fill="none" xmlns="http://www.w3.org/2000/svg">
<path d="M67.9998 49.3334C77.5728 49.3334 85.3332 41.573 85.3332 32C85.3332 22.4271 77.5728 14.6667 67.9998 14.6667C58.4269 14.6667 50.6665 22.4271 50.6665 32C50.6665 41.573 58.4269 49.3334 67.9998 49.3334Z" stroke="#FFC635" stroke-width="5" stroke-linecap="round" stroke-linejoin="round"/>
<path d="M86.6933 13.3067L87.712 12.288M48.2881 51.712L49.3066 50.6933M68 5.54667L68 4.35199M68 59.648V58.4533M41.5466 32H40.3521M95.648 32H94.4533M49.3066 13.3067L48.0321 12.032M87.456 51.712L86.6933 50.6933" stroke="#FFC635" stroke-width="6" stroke-linecap="round" stroke-linejoin="round"/>
<path d="M1.57925e-07 56.5064C-0.00122161 46.9621 7.08673 38.8205 16.7473 37.2695C22.0958 27.9814 32.7162 22.8145 43.5454 24.2321C54.3746 25.6496 63.2206 33.3646 65.8661 43.6992C74.4784 44.9892 80.6172 52.5292 79.9505 60.9984C79.2837 69.4676 72.0366 76.0062 63.3232 76H19.9968C8.95287 76 1.57925e-07 67.2724 1.57925e-07 56.5064Z" fill="white"/>
<path d="M34.8682 84.3733H34.8922" stroke="white" stroke-width="2" stroke-linecap="round" stroke-linejoin="round"/>
<path d="M24.2012 84.3733H24.2252" stroke="white" stroke-width="2" stroke-linecap="round" stroke-linejoin="round"/>
<path d="M29.5347 92.3733H29.5587" stroke="white" stroke-width="2" stroke-linecap="round" stroke-linejoin="round"/>
<path d="M49.1882 94.0261L49.2004 94.0468" stroke="white" stroke-width="2" stroke-linecap="round" stroke-linejoin="round"/>
<path d="M43.7385 84.8571L43.7507 84.8777" stroke="white" stroke-width="2" stroke-linecap="round" stroke-linejoin="round"/>
<path d="M39.5866 93.5293L39.5989 93.5499" stroke="white" stroke-width="2" stroke-linecap="round" stroke-linejoin="round"/>
<path d="M52.7074 85.5589L52.6945 85.5387" stroke="white" stroke-width="2" stroke-linecap="round" stroke-linejoin="round"/>
<path d="M58.4252 94.5638L58.4123 94.5435" stroke="white" stroke-width="2" stroke-linecap="round" stroke-linejoin="round"/>
<path d="M62.3202 85.7732L62.3073 85.753" stroke="white" stroke-width="2" stroke-linecap="round" stroke-linejoin="round"/>
<path d="M21.1736 93.2762L21.1836 93.2955" stroke="white" stroke-width="2" stroke-linecap="round" stroke-linejoin="round"/>
<path d="M15.1624 84.0558L15.1724 84.0751" stroke="white" stroke-width="2" stroke-linecap="round" stroke-linejoin="round"/>
<path d="M10.4964 91.903L10.5064 91.9223" stroke="white" stroke-width="2" stroke-linecap="round" stroke-linejoin="round"/>
<path d="M28.0415 78.6134H28.0655" stroke="white" stroke-width="2" stroke-linecap="round" stroke-linejoin="round"/>
<path d="M19.16 77.6558L19.1699 77.6751" stroke="white" stroke-width="2" stroke-linecap="round" stroke-linejoin="round"/>
<path d="M46.9214 78.9333H46.9454" stroke="white" stroke-width="2" stroke-linecap="round" stroke-linejoin="round"/>
<path d="M65.3213 78.9333H65.3453" stroke="white" stroke-width="2" stroke-linecap="round" stroke-linejoin="round"/>
<path d="M55.7212 78.9333H55.7452" stroke="white" stroke-width="2" stroke-linecap="round" stroke-linejoin="round"/>
<path d="M36.8963 78.4557L36.9063 78.475" stroke="white" stroke-width="2" stroke-linecap="round" stroke-linejoin="round"/>
</svg>
