<svg width="100" height="100" viewBox="0 0 100 100" fill="none" xmlns="http://www.w3.org/2000/svg">
<path d="M45.0729 30.0976C46.0394 43.4842 57.7712 54.3754 71.8118 54.9733C81.718 55.3892 90.5773 50.9183 95.8929 43.8741C98.0942 40.9889 96.913 39.0654 93.2351 39.7152C91.4364 40.0271 89.584 40.1571 87.6511 40.0791C74.5232 39.5592 63.7847 28.9279 63.7311 16.3732C63.7042 12.994 64.4291 9.79685 65.7445 6.8856C67.1942 3.66242 65.4492 2.12882 62.0934 3.50646C51.4623 7.84735 44.187 18.2187 45.0729 30.0976Z" stroke="#000412" stroke-width="6" stroke-linecap="round" stroke-linejoin="round"/>
<path d="M1.57925e-07 56.5064C-0.00122161 46.9621 7.08673 38.8205 16.7473 37.2695C22.0958 27.9814 32.7162 22.8145 43.5454 24.2321C54.3746 25.6496 63.2206 33.3646 65.8661 43.6992C74.4784 44.9892 80.6172 52.5292 79.9505 60.9984C79.2837 69.4676 72.0366 76.0062 63.3232 76H19.9968C8.95287 76 1.57925e-07 67.2724 1.57925e-07 56.5064Z" fill="white"/>
<path d="M34.8682 84.3734H34.8922" stroke="white" stroke-width="2" stroke-linecap="round" stroke-linejoin="round"/>
<path d="M24.2012 84.3734H24.2252" stroke="white" stroke-width="2" stroke-linecap="round" stroke-linejoin="round"/>
<path d="M29.5347 92.3734H29.5587" stroke="white" stroke-width="2" stroke-linecap="round" stroke-linejoin="round"/>
<path d="M49.188 94.0261L49.2002 94.0467" stroke="white" stroke-width="2" stroke-linecap="round" stroke-linejoin="round"/>
<path d="M43.7383 84.8571L43.7505 84.8778" stroke="white" stroke-width="2" stroke-linecap="round" stroke-linejoin="round"/>
<path d="M39.5864 93.5293L39.5987 93.5499" stroke="white" stroke-width="2" stroke-linecap="round" stroke-linejoin="round"/>
<path d="M52.7072 85.559L52.6943 85.5387" stroke="white" stroke-width="2" stroke-linecap="round" stroke-linejoin="round"/>
<path d="M58.425 94.5638L58.4121 94.5435" stroke="white" stroke-width="2" stroke-linecap="round" stroke-linejoin="round"/>
<path d="M62.32 85.7733L62.3071 85.7531" stroke="white" stroke-width="2" stroke-linecap="round" stroke-linejoin="round"/>
<path d="M21.1738 93.2762L21.1838 93.2955" stroke="white" stroke-width="2" stroke-linecap="round" stroke-linejoin="round"/>
<path d="M15.1626 84.0558L15.1726 84.0751" stroke="white" stroke-width="2" stroke-linecap="round" stroke-linejoin="round"/>
<path d="M10.4966 91.9031L10.5066 91.9224" stroke="white" stroke-width="2" stroke-linecap="round" stroke-linejoin="round"/>
<path d="M28.0415 78.6134H28.0655" stroke="white" stroke-width="2" stroke-linecap="round" stroke-linejoin="round"/>
<path d="M19.1602 77.6558L19.1701 77.6751" stroke="white" stroke-width="2" stroke-linecap="round" stroke-linejoin="round"/>
<path d="M46.9214 78.9333H46.9454" stroke="white" stroke-width="2" stroke-linecap="round" stroke-linejoin="round"/>
<path d="M65.3213 78.9333H65.3453" stroke="white" stroke-width="2" stroke-linecap="round" stroke-linejoin="round"/>
<path d="M55.7212 78.9333H55.7452" stroke="white" stroke-width="2" stroke-linecap="round" stroke-linejoin="round"/>
<path d="M36.8965 78.4558L36.9065 78.4751" stroke="white" stroke-width="2" stroke-linecap="round" stroke-linejoin="round"/>
</svg>
