<svg width="100" height="100" viewBox="0 0 100 100" fill="none" xmlns="http://www.w3.org/2000/svg">
<path d="M36 41.5475C35.9991 34.34 41.2169 28.1918 48.3286 27.0206C52.2659 20.0066 60.0841 16.1048 68.0561 17.1752C76.0281 18.2457 82.5401 24.0718 84.4876 31.876C90.8276 32.8501 95.3467 38.5441 94.8558 44.9396C94.365 51.3352 89.03 56.2729 82.6156 56.2682H50.7207C42.5907 56.2682 36 49.6775 36 41.5475Z" fill="#828282"/>
<path d="M4 48.1352C3.99887 39.0839 10.5515 31.3629 19.4824 29.8921C24.4269 21.0838 34.2452 16.1839 44.2565 17.5282C54.2678 18.8725 62.4457 26.1889 64.8914 35.9896C72.8532 37.2129 78.5284 44.3635 77.912 52.3951C77.2956 60.4267 70.5958 66.6275 62.5406 66.6217H22.4865C12.2767 66.6217 4 58.345 4 48.1352Z" fill="white"/>
<path d="M32.0671 69.4279H36.744V80.2519C36.744 81.8313 38.7551 82.6211 39.784 81.4132L51.2424 68.4523C52.6455 66.8729 52.0375 65.5721 49.9329 65.5721H45.256V54.7481C45.256 53.1687 43.2449 52.3789 42.216 53.5868L30.7576 66.5477C29.3545 68.1271 29.9625 69.4279 32.0671 69.4279Z" fill="#FFB800" stroke="#FFB800" stroke-width="1.5" stroke-miterlimit="10" stroke-linecap="round" stroke-linejoin="round"/>
</svg>
