<svg width="100" height="100" viewBox="0 0 100 100" fill="none" xmlns="http://www.w3.org/2000/svg">
<path fill-rule="evenodd" clip-rule="evenodd" d="M50.0004 5.20837C51.7262 5.20837 53.1254 6.6075 53.1254 8.33337V17.4556L60.2904 10.2903C61.5108 9.06996 63.4896 9.06996 64.71 10.2903C65.9304 11.5107 65.9304 13.4894 64.71 14.7097L53.1254 26.2945V44.5875L68.9671 35.4412L73.2075 19.6162C73.6542 17.9491 75.3675 16.9598 77.0346 17.4065C78.7017 17.8532 79.6913 19.5667 79.2446 21.2338L76.6217 31.0218L84.5217 26.4607C86.0167 25.5977 87.9275 26.1098 88.7908 27.6045C89.6538 29.0992 89.1417 31.0104 87.6467 31.8733L79.7467 36.4345L89.5346 39.0571C91.2017 39.5038 92.1913 41.2174 91.7446 42.8846C91.2975 44.5517 89.5842 45.5409 87.9171 45.0942L72.0921 40.8539L56.2504 50L72.0929 59.1467L87.9179 54.9063C89.585 54.4596 91.2983 55.4492 91.7454 57.1163C92.1921 58.7834 91.2025 60.4967 89.5354 60.9434L79.7475 63.5663L87.6475 68.1271C89.1425 68.9905 89.6546 70.9013 88.7917 72.3963C87.9283 73.8909 86.0175 74.403 84.5225 73.54L76.6225 68.9788L79.2454 78.7667C79.6921 80.4338 78.7025 82.1475 77.0354 82.5942C75.3683 83.0409 73.655 82.0517 73.2083 80.3846L68.9679 64.5596L53.1254 55.4125V73.7055L64.71 85.2905C65.9304 86.5109 65.9304 88.4892 64.71 89.7096C63.4896 90.93 61.5108 90.93 60.2904 89.7096L53.1254 82.5446V91.6667C53.1254 93.3925 51.7262 94.7917 50.0004 94.7917C48.2746 94.7917 46.8754 93.3925 46.8754 91.6667V82.5446L39.71 89.7096C38.4897 90.93 36.511 90.93 35.2906 89.7096C34.0703 88.4892 34.0703 86.5109 35.2906 85.2905L46.8754 73.7055V55.4125L31.0328 64.5596L26.7925 80.3846C26.3458 82.0517 24.6322 83.0409 22.9652 82.5942C21.2981 82.1475 20.3087 80.4338 20.7555 78.7667L23.3781 68.9788L15.478 73.54C13.9834 74.403 12.0721 73.8909 11.2092 72.3963C10.3462 70.9013 10.8584 68.9905 12.353 68.1271L20.2531 63.5663L10.4652 60.9434C8.79808 60.4967 7.80875 58.7834 8.25546 57.1163C8.70212 55.4492 10.4157 54.4596 12.0828 54.9063L27.9078 59.1467L43.7504 50L27.9086 40.8539L12.0836 45.0942C10.4165 45.5409 8.70296 44.5517 8.25625 42.8846C7.80958 41.2174 8.79887 39.5038 10.466 39.0571L20.254 36.4345L12.3538 31.8733C10.8592 31.0104 10.3471 29.0992 11.21 27.6045C12.073 26.1098 13.9842 25.5977 15.4788 26.4607L23.379 31.0218L20.7562 21.2338C20.3096 19.5667 21.2989 17.8532 22.966 17.4065C24.633 16.9598 26.3466 17.9491 26.7933 19.6162L31.0336 35.4412L46.8754 44.5875V26.2945L35.2906 14.7097C34.0703 13.4894 34.0703 11.5107 35.2906 10.2903C36.511 9.06996 38.4897 9.06996 39.71 10.2903L46.8754 17.4556V8.33337C46.8754 6.6075 48.2746 5.20837 50.0004 5.20837Z" fill="white"/>
</svg>
