<svg width="100" height="100" viewBox="0 0 100 100" fill="none" xmlns="http://www.w3.org/2000/svg">
<path d="M8.33325 54.5834L18.7499 48.3334C25.1666 44.5 33.1666 44.5 39.5833 48.3334C45.9999 52.1667 53.9999 52.1667 60.4166 48.3334C66.8333 44.5 74.8333 44.5 81.2499 48.3334L91.6666 54.5834" stroke="white" stroke-width="6" stroke-miterlimit="10" stroke-linecap="round" stroke-linejoin="round"/>
<path d="M8.33325 16.25L18.7499 22.5C25.1666 26.3333 33.1666 26.3333 39.5833 22.5C45.9999 18.6667 53.9999 18.6667 60.4166 22.5C66.8333 26.3333 74.8333 26.3333 81.2499 22.5L91.6666 16.25" stroke="white" stroke-width="6" stroke-miterlimit="10" stroke-linecap="round" stroke-linejoin="round"/>
<path d="M8.33325 83.75L18.7499 77.5C25.1666 73.6667 33.1666 73.6667 39.5833 77.5C45.9999 81.3333 53.9999 81.3333 60.4166 77.5C66.8333 73.6667 74.8333 73.6667 81.2499 77.5L91.6666 83.75" stroke="white" stroke-width="6" stroke-miterlimit="10" stroke-linecap="round" stroke-linejoin="round"/>
</svg>
